<svg xmlns="http://www.w3.org/2000/svg" width="1280" height="620" viewBox="0 0 1280 620"><rect width="1280" height="620" fill="#f8fafc"/><text x="48" y="55" font-family="Arial, sans-serif" font-size="30" font-weight="700" fill="#0f172a">ARC123 Corpus-Callosum Trace</text><text x="48" y="84" font-family="Arial, sans-serif" font-size="16" fill="#334155">Explicit evidence → compatibility support → complete candidate output</text><text x="120" y="142" font-family="Arial, sans-serif" font-size="20" font-weight="700" fill="#0f172a">Test input</text><rect x="66" y="161" width="263" height="93" rx="8" fill="#f8fafc" stroke="#475569"/><rect x="70" y="165" width="16" height="16" fill="#111827"/><rect x="87" y="165" width="16" height="16" fill="#dc2626"/><rect x="104" y="165" width="16" height="16" fill="#111827"/><rect x="121" y="165" width="16" height="16" fill="#facc15"/><rect x="138" y="165" width="16" height="16" fill="#facc15"/><rect x="155" y="165" width="16" height="16" fill="#111827"/><rect x="172" y="165" width="16" height="16" fill="#dc2626"/><rect x="189" y="165" width="16" height="16" fill="#111827"/><rect x="206" y="165" width="16" height="16" fill="#facc15"/><rect x="223" y="165" width="16" height="16" fill="#facc15"/><rect x="240" y="165" width="16" height="16" fill="#111827"/><rect x="257" y="165" width="16" height="16" fill="#dc2626"/><rect x="274" y="165" width="16" height="16" fill="#111827"/><rect x="291" y="165" width="16" height="16" fill="#facc15"/><rect x="308" y="165" width="16" height="16" fill="#facc15"/><rect x="70" y="182" width="16" height="16" fill="#dc2626"/><rect x="87" y="182" width="16" height="16" fill="#dc2626"/><rect x="104" y="182" width="16" height="16" fill="#111827"/><rect x="121" y="182" width="16" height="16" fill="#facc15"/><rect x="138" y="182" width="16" height="16" fill="#facc15"/><rect x="155" y="182" width="16" height="16" fill="#dc2626"/><rect x="172" y="182" width="16" height="16" fill="#dc2626"/><rect x="189" y="182" width="16" height="16" fill="#111827"/><rect x="206" y="182" width="16" height="16" fill="#facc15"/><rect x="223" y="182" width="16" height="16" fill="#facc15"/><rect x="240" y="182" width="16" height="16" fill="#dc2626"/><rect x="257" y="182" width="16" height="16" fill="#dc2626"/><rect x="274" y="182" width="16" height="16" fill="#111827"/><rect x="291" y="182" width="16" height="16" fill="#facc15"/><rect x="308" y="182" width="16" height="16" fill="#facc15"/><rect x="70" y="199" width="16" height="16" fill="#111827"/><rect x="87" y="199" width="16" height="16" fill="#dc2626"/><rect x="104" y="199" width="16" height="16" fill="#dc2626"/><rect x="121" y="199" width="16" height="16" fill="#dc2626"/><rect x="138" y="199" width="16" height="16" fill="#111827"/><rect x="155" y="199" width="16" height="16" fill="#111827"/><rect x="172" y="199" width="16" height="16" fill="#dc2626"/><rect x="189" y="199" width="16" height="16" fill="#dc2626"/><rect x="206" y="199" width="16" height="16" fill="#dc2626"/><rect x="223" y="199" width="16" height="16" fill="#111827"/><rect x="240" y="199" width="16" height="16" fill="#111827"/><rect x="257" y="199" width="16" height="16" fill="#dc2626"/><rect x="274" y="199" width="16" height="16" fill="#dc2626"/><rect x="291" y="199" width="16" height="16" fill="#dc2626"/><rect x="308" y="199" width="16" height="16" fill="#111827"/><rect x="70" y="216" width="16" height="16" fill="#2563eb"/><rect x="87" y="216" width="16" height="16" fill="#2563eb"/><rect x="104" y="216" width="16" height="16" fill="#111827"/><rect x="121" y="216" width="16" height="16" fill="#dc2626"/><rect x="138" y="216" width="16" height="16" fill="#dc2626"/><rect x="155" y="216" width="16" height="16" fill="#2563eb"/><rect x="172" y="216" width="16" height="16" fill="#2563eb"/><rect x="189" y="216" width="16" height="16" fill="#111827"/><rect x="206" y="216" width="16" height="16" fill="#dc2626"/><rect x="223" y="216" width="16" height="16" fill="#dc2626"/><rect x="240" y="216" width="16" height="16" fill="#2563eb"/><rect x="257" y="216" width="16" height="16" fill="#2563eb"/><rect x="274" y="216" width="16" height="16" fill="#111827"/><rect x="291" y="216" width="16" height="16" fill="#dc2626"/><rect x="308" y="216" width="16" height="16" fill="#dc2626"/><rect x="70" y="233" width="16" height="16" fill="#2563eb"/><rect x="87" y="233" width="16" height="16" fill="#2563eb"/><rect x="104" y="233" width="16" height="16" fill="#111827"/><rect x="121" y="233" width="16" height="16" fill="#dc2626"/><rect x="138" y="233" width="16" height="16" fill="#111827"/><rect x="155" y="233" width="16" height="16" fill="#2563eb"/><rect x="172" y="233" width="16" height="16" fill="#2563eb"/><rect x="189" y="233" width="16" height="16" fill="#111827"/><rect x="206" y="233" width="16" height="16" fill="#dc2626"/><rect x="223" y="233" width="16" height="16" fill="#111827"/><rect x="240" y="233" width="16" height="16" fill="#2563eb"/><rect x="257" y="233" width="16" height="16" fill="#2563eb"/><rect x="274" y="233" width="16" height="16" fill="#111827"/><rect x="291" y="233" width="16" height="16" fill="#dc2626"/><rect x="308" y="233" width="16" height="16" fill="#111827"/><path d="M 360 300 C 470 170, 510 170, 580 280" fill="none" stroke="#2563eb" stroke-width="12" stroke-linecap="round"/><path d="M 360 330 C 470 450, 510 450, 580 340" fill="none" stroke="#7c3aed" stroke-width="12" stroke-linecap="round"/><rect x="540" y="205" width="235" height="220" rx="24" fill="#ffffff" stroke="#334155" stroke-width="3"/><text x="567" y="248" font-family="Arial, sans-serif" font-size="22" font-weight="700" fill="#0f172a">Compatibility core</text><text x="567" y="285" font-family="Arial, sans-serif" font-size="16" fill="#334155">UNKNOWN ≠ IMPOSSIBLE</text><text x="567" y="319" font-family="Arial, sans-serif" font-size="15" fill="#334155">Exact contradictions: zero support</text><text x="567" y="352" font-family="Arial, sans-serif" font-size="13" fill="#475569">Selected generic operator</text><text x="567" y="376" font-family="Arial, sans-serif" font-size="16" font-weight="700" fill="#0f172a">identity fallback</text><text x="567" y="405" font-family="Arial, sans-serif" font-size="13" fill="#475569">partial theories retained until refuted</text><path d="M 775 280 C 870 170, 905 170, 1010 300" fill="none" stroke="#16a34a" stroke-width="12" stroke-linecap="round"/><path d="M 775 340 C 870 450, 905 450, 1010 330" fill="none" stroke="#ea580c" stroke-width="12" stroke-linecap="round"/><text x="1050" y="142" font-family="Arial, sans-serif" font-size="20" font-weight="700" fill="#0f172a">Committed output</text><rect x="986" y="161" width="263" height="93" rx="8" fill="#f8fafc" stroke="#475569"/><rect x="990" y="165" width="16" height="16" fill="#111827"/><rect x="1007" y="165" width="16" height="16" fill="#dc2626"/><rect x="1024" y="165" width="16" height="16" fill="#111827"/><rect x="1041" y="165" width="16" height="16" fill="#facc15"/><rect x="1058" y="165" width="16" height="16" fill="#facc15"/><rect x="1075" y="165" width="16" height="16" fill="#111827"/><rect x="1092" y="165" width="16" height="16" fill="#dc2626"/><rect x="1109" y="165" width="16" height="16" fill="#111827"/><rect x="1126" y="165" width="16" height="16" fill="#facc15"/><rect x="1143" y="165" width="16" height="16" fill="#facc15"/><rect x="1160" y="165" width="16" height="16" fill="#111827"/><rect x="1177" y="165" width="16" height="16" fill="#dc2626"/><rect x="1194" y="165" width="16" height="16" fill="#111827"/><rect x="1211" y="165" width="16" height="16" fill="#facc15"/><rect x="1228" y="165" width="16" height="16" fill="#facc15"/><rect x="990" y="182" width="16" height="16" fill="#dc2626"/><rect x="1007" y="182" width="16" height="16" fill="#dc2626"/><rect x="1024" y="182" width="16" height="16" fill="#111827"/><rect x="1041" y="182" width="16" height="16" fill="#facc15"/><rect x="1058" y="182" width="16" height="16" fill="#facc15"/><rect x="1075" y="182" width="16" height="16" fill="#dc2626"/><rect x="1092" y="182" width="16" height="16" fill="#dc2626"/><rect x="1109" y="182" width="16" height="16" fill="#111827"/><rect x="1126" y="182" width="16" height="16" fill="#facc15"/><rect x="1143" y="182" width="16" height="16" fill="#facc15"/><rect x="1160" y="182" width="16" height="16" fill="#dc2626"/><rect x="1177" y="182" width="16" height="16" fill="#dc2626"/><rect x="1194" y="182" width="16" height="16" fill="#111827"/><rect x="1211" y="182" width="16" height="16" fill="#facc15"/><rect x="1228" y="182" width="16" height="16" fill="#facc15"/><rect x="990" y="199" width="16" height="16" fill="#111827"/><rect x="1007" y="199" width="16" height="16" fill="#dc2626"/><rect x="1024" y="199" width="16" height="16" fill="#dc2626"/><rect x="1041" y="199" width="16" height="16" fill="#dc2626"/><rect x="1058" y="199" width="16" height="16" fill="#111827"/><rect x="1075" y="199" width="16" height="16" fill="#111827"/><rect x="1092" y="199" width="16" height="16" fill="#dc2626"/><rect x="1109" y="199" width="16" height="16" fill="#dc2626"/><rect x="1126" y="199" width="16" height="16" fill="#dc2626"/><rect x="1143" y="199" width="16" height="16" fill="#111827"/><rect x="1160" y="199" width="16" height="16" fill="#111827"/><rect x="1177" y="199" width="16" height="16" fill="#dc2626"/><rect x="1194" y="199" width="16" height="16" fill="#dc2626"/><rect x="1211" y="199" width="16" height="16" fill="#dc2626"/><rect x="1228" y="199" width="16" height="16" fill="#111827"/><rect x="990" y="216" width="16" height="16" fill="#2563eb"/><rect x="1007" y="216" width="16" height="16" fill="#2563eb"/><rect x="1024" y="216" width="16" height="16" fill="#111827"/><rect x="1041" y="216" width="16" height="16" fill="#dc2626"/><rect x="1058" y="216" width="16" height="16" fill="#dc2626"/><rect x="1075" y="216" width="16" height="16" fill="#2563eb"/><rect x="1092" y="216" width="16" height="16" fill="#2563eb"/><rect x="1109" y="216" width="16" height="16" fill="#111827"/><rect x="1126" y="216" width="16" height="16" fill="#dc2626"/><rect x="1143" y="216" width="16" height="16" fill="#dc2626"/><rect x="1160" y="216" width="16" height="16" fill="#2563eb"/><rect x="1177" y="216" width="16" height="16" fill="#2563eb"/><rect x="1194" y="216" width="16" height="16" fill="#111827"/><rect x="1211" y="216" width="16" height="16" fill="#dc2626"/><rect x="1228" y="216" width="16" height="16" fill="#dc2626"/><rect x="990" y="233" width="16" height="16" fill="#2563eb"/><rect x="1007" y="233" width="16" height="16" fill="#2563eb"/><rect x="1024" y="233" width="16" height="16" fill="#111827"/><rect x="1041" y="233" width="16" height="16" fill="#dc2626"/><rect x="1058" y="233" width="16" height="16" fill="#111827"/><rect x="1075" y="233" width="16" height="16" fill="#2563eb"/><rect x="1092" y="233" width="16" height="16" fill="#2563eb"/><rect x="1109" y="233" width="16" height="16" fill="#111827"/><rect x="1126" y="233" width="16" height="16" fill="#dc2626"/><rect x="1143" y="233" width="16" height="16" fill="#111827"/><rect x="1160" y="233" width="16" height="16" fill="#2563eb"/><rect x="1177" y="233" width="16" height="16" fill="#2563eb"/><rect x="1194" y="233" width="16" height="16" fill="#111827"/><rect x="1211" y="233" width="16" height="16" fill="#dc2626"/><rect x="1228" y="233" width="16" height="16" fill="#111827"/><rect x="48" y="520" width="1184" height="55" rx="12" fill="#e2e8f0"/><text x="70" y="554" font-family="Arial, sans-serif" font-size="15" fill="#0f172a">Observable controller path: ATTEND → PROPOSE → APPLY/COMPARE → COUNTEREXAMPLE → REVISE → COMMIT</text></svg>