<svg xmlns="http://www.w3.org/2000/svg" width="1280" height="620" viewBox="0 0 1280 620"><rect width="1280" height="620" fill="#f8fafc"/><text x="48" y="55" font-family="Arial, sans-serif" font-size="30" font-weight="700" fill="#0f172a">ARC123 Corpus-Callosum Trace</text><text x="48" y="84" font-family="Arial, sans-serif" font-size="16" fill="#334155">Explicit evidence → compatibility support → complete candidate output</text><text x="120" y="142" font-family="Arial, sans-serif" font-size="20" font-weight="700" fill="#0f172a">Test input</text><rect x="66" y="161" width="263" height="263" rx="8" fill="#f8fafc" stroke="#475569"/><rect x="70" y="165" width="14" height="14" fill="#111827"/><rect x="85" y="165" width="14" height="14" fill="#111827"/><rect x="100" y="165" width="14" height="14" fill="#111827"/><rect x="115" y="165" width="14" height="14" fill="#111827"/><rect x="130" y="165" width="14" height="14" fill="#111827"/><rect x="145" y="165" width="14" height="14" fill="#111827"/><rect x="160" y="165" width="14" height="14" fill="#111827"/><rect x="175" y="165" width="14" height="14" fill="#111827"/><rect x="190" y="165" width="14" height="14" fill="#111827"/><rect x="205" y="165" width="14" height="14" fill="#111827"/><rect x="220" y="165" width="14" height="14" fill="#111827"/><rect x="235" y="165" width="14" height="14" fill="#111827"/><rect x="250" y="165" width="14" height="14" fill="#111827"/><rect x="265" y="165" width="14" height="14" fill="#111827"/><rect x="280" y="165" width="14" height="14" fill="#22d3ee"/><rect x="295" y="165" width="14" height="14" fill="#111827"/><rect x="310" y="165" width="14" height="14" fill="#111827"/><rect x="70" y="180" width="14" height="14" fill="#111827"/><rect x="85" y="180" width="14" height="14" fill="#111827"/><rect x="100" y="180" width="14" height="14" fill="#111827"/><rect x="115" y="180" width="14" height="14" fill="#111827"/><rect x="130" y="180" width="14" height="14" fill="#2563eb"/><rect x="145" y="180" width="14" height="14" fill="#2563eb"/><rect x="160" y="180" width="14" height="14" fill="#2563eb"/><rect x="175" y="180" width="14" height="14" fill="#2563eb"/><rect x="190" y="180" width="14" height="14" fill="#2563eb"/><rect x="205" y="180" width="14" height="14" fill="#2563eb"/><rect x="220" y="180" width="14" height="14" fill="#2563eb"/><rect x="235" y="180" width="14" height="14" fill="#2563eb"/><rect x="250" y="180" width="14" height="14" fill="#111827"/><rect x="265" y="180" width="14" height="14" fill="#111827"/><rect x="280" y="180" width="14" height="14" fill="#111827"/><rect x="295" y="180" width="14" height="14" fill="#111827"/><rect x="310" y="180" width="14" height="14" fill="#111827"/><rect x="70" y="195" width="14" height="14" fill="#2563eb"/><rect x="85" y="195" width="14" height="14" fill="#2563eb"/><rect x="100" y="195" width="14" height="14" fill="#2563eb"/><rect x="115" y="195" width="14" height="14" fill="#111827"/><rect x="130" y="195" width="14" height="14" fill="#2563eb"/><rect x="145" y="195" width="14" height="14" fill="#111827"/><rect x="160" y="195" width="14" height="14" fill="#22d3ee"/><rect x="175" y="195" width="14" height="14" fill="#111827"/><rect x="190" y="195" width="14" height="14" fill="#22d3ee"/><rect x="205" y="195" width="14" height="14" fill="#111827"/><rect x="220" y="195" width="14" height="14" fill="#111827"/><rect x="235" y="195" width="14" height="14" fill="#2563eb"/><rect x="250" y="195" width="14" height="14" fill="#22d3ee"/><rect x="265" y="195" width="14" height="14" fill="#111827"/><rect x="280" y="195" width="14" height="14" fill="#111827"/><rect x="295" y="195" width="14" height="14" fill="#111827"/><rect x="310" y="195" width="14" height="14" fill="#111827"/><rect x="70" y="210" width="14" height="14" fill="#2563eb"/><rect x="85" y="210" width="14" height="14" fill="#111827"/><rect x="100" y="210" width="14" height="14" fill="#2563eb"/><rect x="115" y="210" width="14" height="14" fill="#111827"/><rect x="130" y="210" width="14" height="14" fill="#2563eb"/><rect x="145" y="210" width="14" height="14" fill="#111827"/><rect x="160" y="210" width="14" height="14" fill="#111827"/><rect x="175" y="210" width="14" height="14" fill="#111827"/><rect x="190" y="210" width="14" height="14" fill="#111827"/><rect x="205" y="210" width="14" height="14" fill="#111827"/><rect x="220" y="210" width="14" height="14" fill="#111827"/><rect x="235" y="210" width="14" height="14" fill="#2563eb"/><rect x="250" y="210" width="14" height="14" fill="#22d3ee"/><rect x="265" y="210" width="14" height="14" fill="#111827"/><rect x="280" y="210" width="14" height="14" fill="#22d3ee"/><rect x="295" y="210" width="14" height="14" fill="#111827"/><rect x="310" y="210" width="14" height="14" fill="#111827"/><rect x="70" y="225" width="14" height="14" fill="#2563eb"/><rect x="85" y="225" width="14" height="14" fill="#2563eb"/><rect x="100" y="225" width="14" height="14" fill="#2563eb"/><rect x="115" y="225" width="14" height="14" fill="#111827"/><rect x="130" y="225" width="14" height="14" fill="#2563eb"/><rect x="145" y="225" width="14" height="14" fill="#111827"/><rect x="160" y="225" width="14" height="14" fill="#111827"/><rect x="175" y="225" width="14" height="14" fill="#111827"/><rect x="190" y="225" width="14" height="14" fill="#111827"/><rect x="205" y="225" width="14" height="14" fill="#111827"/><rect x="220" y="225" width="14" height="14" fill="#111827"/><rect x="235" y="225" width="14" height="14" fill="#2563eb"/><rect x="250" y="225" width="14" height="14" fill="#111827"/><rect x="265" y="225" width="14" height="14" fill="#111827"/><rect x="280" y="225" width="14" height="14" fill="#22d3ee"/><rect x="295" y="225" width="14" height="14" fill="#111827"/><rect x="310" y="225" width="14" height="14" fill="#111827"/><rect x="70" y="240" width="14" height="14" fill="#111827"/><rect x="85" y="240" width="14" height="14" fill="#111827"/><rect x="100" y="240" width="14" height="14" fill="#111827"/><rect x="115" y="240" width="14" height="14" fill="#111827"/><rect x="130" y="240" width="14" height="14" fill="#2563eb"/><rect x="145" y="240" width="14" height="14" fill="#111827"/><rect x="160" y="240" width="14" height="14" fill="#111827"/><rect x="175" y="240" width="14" height="14" fill="#111827"/><rect x="190" y="240" width="14" height="14" fill="#111827"/><rect x="205" y="240" width="14" height="14" fill="#111827"/><rect x="220" y="240" width="14" height="14" fill="#111827"/><rect x="235" y="240" width="14" height="14" fill="#2563eb"/><rect x="250" y="240" width="14" height="14" fill="#111827"/><rect x="265" y="240" width="14" height="14" fill="#111827"/><rect x="280" y="240" width="14" height="14" fill="#111827"/><rect x="295" y="240" width="14" height="14" fill="#111827"/><rect x="310" y="240" width="14" height="14" fill="#111827"/><rect x="70" y="255" width="14" height="14" fill="#111827"/><rect x="85" y="255" width="14" height="14" fill="#111827"/><rect x="100" y="255" width="14" height="14" fill="#111827"/><rect x="115" y="255" width="14" height="14" fill="#111827"/><rect x="130" y="255" width="14" height="14" fill="#2563eb"/><rect x="145" y="255" width="14" height="14" fill="#111827"/><rect x="160" y="255" width="14" height="14" fill="#22d3ee"/><rect x="175" y="255" width="14" height="14" fill="#111827"/><rect x="190" y="255" width="14" height="14" fill="#111827"/><rect x="205" y="255" width="14" height="14" fill="#111827"/><rect x="220" y="255" width="14" height="14" fill="#111827"/><rect x="235" y="255" width="14" height="14" fill="#2563eb"/><rect x="250" y="255" width="14" height="14" fill="#111827"/><rect x="265" y="255" width="14" height="14" fill="#111827"/><rect x="280" y="255" width="14" height="14" fill="#111827"/><rect x="295" y="255" width="14" height="14" fill="#111827"/><rect x="310" y="255" width="14" height="14" fill="#22d3ee"/><rect x="70" y="270" width="14" height="14" fill="#111827"/><rect x="85" y="270" width="14" height="14" fill="#111827"/><rect x="100" y="270" width="14" height="14" fill="#111827"/><rect x="115" y="270" width="14" height="14" fill="#111827"/><rect x="130" y="270" width="14" height="14" fill="#2563eb"/><rect x="145" y="270" width="14" height="14" fill="#111827"/><rect x="160" y="270" width="14" height="14" fill="#111827"/><rect x="175" y="270" width="14" height="14" fill="#111827"/><rect x="190" y="270" width="14" height="14" fill="#111827"/><rect x="205" y="270" width="14" height="14" fill="#22d3ee"/><rect x="220" y="270" width="14" height="14" fill="#111827"/><rect x="235" y="270" width="14" height="14" fill="#2563eb"/><rect x="250" y="270" width="14" height="14" fill="#111827"/><rect x="265" y="270" width="14" height="14" fill="#111827"/><rect x="280" y="270" width="14" height="14" fill="#111827"/><rect x="295" y="270" width="14" height="14" fill="#111827"/><rect x="310" y="270" width="14" height="14" fill="#111827"/><rect x="70" y="285" width="14" height="14" fill="#111827"/><rect x="85" y="285" width="14" height="14" fill="#111827"/><rect x="100" y="285" width="14" height="14" fill="#111827"/><rect x="115" y="285" width="14" height="14" fill="#111827"/><rect x="130" y="285" width="14" height="14" fill="#2563eb"/><rect x="145" y="285" width="14" height="14" fill="#2563eb"/><rect x="160" y="285" width="14" height="14" fill="#2563eb"/><rect x="175" y="285" width="14" height="14" fill="#2563eb"/><rect x="190" y="285" width="14" height="14" fill="#2563eb"/><rect x="205" y="285" width="14" height="14" fill="#2563eb"/><rect x="220" y="285" width="14" height="14" fill="#2563eb"/><rect x="235" y="285" width="14" height="14" fill="#2563eb"/><rect x="250" y="285" width="14" height="14" fill="#111827"/><rect x="265" y="285" width="14" height="14" fill="#22d3ee"/><rect x="280" y="285" width="14" height="14" fill="#111827"/><rect x="295" y="285" width="14" height="14" fill="#111827"/><rect x="310" y="285" width="14" height="14" fill="#111827"/><rect x="70" y="300" width="14" height="14" fill="#111827"/><rect x="85" y="300" width="14" height="14" fill="#22d3ee"/><rect x="100" y="300" width="14" height="14" fill="#111827"/><rect x="115" y="300" width="14" height="14" fill="#111827"/><rect x="130" y="300" width="14" height="14" fill="#111827"/><rect x="145" y="300" width="14" height="14" fill="#111827"/><rect x="160" y="300" width="14" height="14" fill="#111827"/><rect x="175" y="300" width="14" height="14" fill="#111827"/><rect x="190" y="300" width="14" height="14" fill="#111827"/><rect x="205" y="300" width="14" height="14" fill="#111827"/><rect x="220" y="300" width="14" height="14" fill="#111827"/><rect x="235" y="300" width="14" height="14" fill="#111827"/><rect x="250" y="300" width="14" height="14" fill="#111827"/><rect x="265" y="300" width="14" height="14" fill="#111827"/><rect x="280" y="300" width="14" height="14" fill="#111827"/><rect x="295" y="300" width="14" height="14" fill="#111827"/><rect x="310" y="300" width="14" height="14" fill="#111827"/><rect x="70" y="315" width="14" height="14" fill="#111827"/><rect x="85" y="315" width="14" height="14" fill="#111827"/><rect x="100" y="315" width="14" height="14" fill="#111827"/><rect x="115" y="315" width="14" height="14" fill="#111827"/><rect x="130" y="315" width="14" height="14" fill="#111827"/><rect x="145" y="315" width="14" height="14" fill="#22d3ee"/><rect x="160" y="315" width="14" height="14" fill="#111827"/><rect x="175" y="315" width="14" height="14" fill="#111827"/><rect x="190" y="315" width="14" height="14" fill="#111827"/><rect x="205" y="315" width="14" height="14" fill="#111827"/><rect x="220" y="315" width="14" height="14" fill="#111827"/><rect x="235" y="315" width="14" height="14" fill="#111827"/><rect x="250" y="315" width="14" height="14" fill="#111827"/><rect x="265" y="315" width="14" height="14" fill="#111827"/><rect x="280" y="315" width="14" height="14" fill="#111827"/><rect x="295" y="315" width="14" height="14" fill="#111827"/><rect x="310" y="315" width="14" height="14" fill="#111827"/><rect x="70" y="330" width="14" height="14" fill="#111827"/><rect x="85" y="330" width="14" height="14" fill="#22d3ee"/><rect x="100" y="330" width="14" height="14" fill="#111827"/><rect x="115" y="330" width="14" height="14" fill="#111827"/><rect x="130" y="330" width="14" height="14" fill="#111827"/><rect x="145" y="330" width="14" height="14" fill="#111827"/><rect x="160" y="330" width="14" height="14" fill="#111827"/><rect x="175" y="330" width="14" height="14" fill="#111827"/><rect x="190" y="330" width="14" height="14" fill="#111827"/><rect x="205" y="330" width="14" height="14" fill="#111827"/><rect x="220" y="330" width="14" height="14" fill="#2563eb"/><rect x="235" y="330" width="14" height="14" fill="#2563eb"/><rect x="250" y="330" width="14" height="14" fill="#2563eb"/><rect x="265" y="330" width="14" height="14" fill="#2563eb"/><rect x="280" y="330" width="14" height="14" fill="#2563eb"/><rect x="295" y="330" width="14" height="14" fill="#2563eb"/><rect x="310" y="330" width="14" height="14" fill="#111827"/><rect x="70" y="345" width="14" height="14" fill="#111827"/><rect x="85" y="345" width="14" height="14" fill="#111827"/><rect x="100" y="345" width="14" height="14" fill="#111827"/><rect x="115" y="345" width="14" height="14" fill="#111827"/><rect x="130" y="345" width="14" height="14" fill="#111827"/><rect x="145" y="345" width="14" height="14" fill="#111827"/><rect x="160" y="345" width="14" height="14" fill="#111827"/><rect x="175" y="345" width="14" height="14" fill="#111827"/><rect x="190" y="345" width="14" height="14" fill="#111827"/><rect x="205" y="345" width="14" height="14" fill="#111827"/><rect x="220" y="345" width="14" height="14" fill="#2563eb"/><rect x="235" y="345" width="14" height="14" fill="#111827"/><rect x="250" y="345" width="14" height="14" fill="#111827"/><rect x="265" y="345" width="14" height="14" fill="#111827"/><rect x="280" y="345" width="14" height="14" fill="#111827"/><rect x="295" y="345" width="14" height="14" fill="#2563eb"/><rect x="310" y="345" width="14" height="14" fill="#111827"/><rect x="70" y="360" width="14" height="14" fill="#111827"/><rect x="85" y="360" width="14" height="14" fill="#111827"/><rect x="100" y="360" width="14" height="14" fill="#111827"/><rect x="115" y="360" width="14" height="14" fill="#111827"/><rect x="130" y="360" width="14" height="14" fill="#111827"/><rect x="145" y="360" width="14" height="14" fill="#22d3ee"/><rect x="160" y="360" width="14" height="14" fill="#111827"/><rect x="175" y="360" width="14" height="14" fill="#111827"/><rect x="190" y="360" width="14" height="14" fill="#111827"/><rect x="205" y="360" width="14" height="14" fill="#111827"/><rect x="220" y="360" width="14" height="14" fill="#2563eb"/><rect x="235" y="360" width="14" height="14" fill="#22d3ee"/><rect x="250" y="360" width="14" height="14" fill="#111827"/><rect x="265" y="360" width="14" height="14" fill="#22d3ee"/><rect x="280" y="360" width="14" height="14" fill="#111827"/><rect x="295" y="360" width="14" height="14" fill="#2563eb"/><rect x="310" y="360" width="14" height="14" fill="#111827"/><rect x="70" y="375" width="14" height="14" fill="#111827"/><rect x="85" y="375" width="14" height="14" fill="#111827"/><rect x="100" y="375" width="14" height="14" fill="#111827"/><rect x="115" y="375" width="14" height="14" fill="#22d3ee"/><rect x="130" y="375" width="14" height="14" fill="#22d3ee"/><rect x="145" y="375" width="14" height="14" fill="#111827"/><rect x="160" y="375" width="14" height="14" fill="#111827"/><rect x="175" y="375" width="14" height="14" fill="#22d3ee"/><rect x="190" y="375" width="14" height="14" fill="#111827"/><rect x="205" y="375" width="14" height="14" fill="#111827"/><rect x="220" y="375" width="14" height="14" fill="#2563eb"/><rect x="235" y="375" width="14" height="14" fill="#111827"/><rect x="250" y="375" width="14" height="14" fill="#111827"/><rect x="265" y="375" width="14" height="14" fill="#111827"/><rect x="280" y="375" width="14" height="14" fill="#111827"/><rect x="295" y="375" width="14" height="14" fill="#2563eb"/><rect x="310" y="375" width="14" height="14" fill="#111827"/><rect x="70" y="390" width="14" height="14" fill="#111827"/><rect x="85" y="390" width="14" height="14" fill="#111827"/><rect x="100" y="390" width="14" height="14" fill="#111827"/><rect x="115" y="390" width="14" height="14" fill="#111827"/><rect x="130" y="390" width="14" height="14" fill="#111827"/><rect x="145" y="390" width="14" height="14" fill="#111827"/><rect x="160" y="390" width="14" height="14" fill="#111827"/><rect x="175" y="390" width="14" height="14" fill="#111827"/><rect x="190" y="390" width="14" height="14" fill="#111827"/><rect x="205" y="390" width="14" height="14" fill="#111827"/><rect x="220" y="390" width="14" height="14" fill="#2563eb"/><rect x="235" y="390" width="14" height="14" fill="#2563eb"/><rect x="250" y="390" width="14" height="14" fill="#2563eb"/><rect x="265" y="390" width="14" height="14" fill="#2563eb"/><rect x="280" y="390" width="14" height="14" fill="#2563eb"/><rect x="295" y="390" width="14" height="14" fill="#2563eb"/><rect x="310" y="390" width="14" height="14" fill="#111827"/><rect x="70" y="405" width="14" height="14" fill="#111827"/><rect x="85" y="405" width="14" height="14" fill="#111827"/><rect x="100" y="405" width="14" height="14" fill="#111827"/><rect x="115" y="405" width="14" height="14" fill="#111827"/><rect x="130" y="405" width="14" height="14" fill="#111827"/><rect x="145" y="405" width="14" height="14" fill="#111827"/><rect x="160" y="405" width="14" height="14" fill="#111827"/><rect x="175" y="405" width="14" height="14" fill="#111827"/><rect x="190" y="405" width="14" height="14" fill="#22d3ee"/><rect x="205" y="405" width="14" height="14" fill="#22d3ee"/><rect x="220" y="405" width="14" height="14" fill="#111827"/><rect x="235" y="405" width="14" height="14" fill="#111827"/><rect x="250" y="405" width="14" height="14" fill="#111827"/><rect x="265" y="405" width="14" height="14" fill="#111827"/><rect x="280" y="405" width="14" height="14" fill="#111827"/><rect x="295" y="405" width="14" height="14" fill="#111827"/><rect x="310" y="405" width="14" height="14" fill="#22d3ee"/><path d="M 360 300 C 470 170, 510 170, 580 280" fill="none" stroke="#2563eb" stroke-width="12" stroke-linecap="round"/><path d="M 360 330 C 470 450, 510 450, 580 340" fill="none" stroke="#7c3aed" stroke-width="12" stroke-linecap="round"/><rect x="540" y="205" width="235" height="220" rx="24" fill="#ffffff" stroke="#334155" stroke-width="3"/><text x="567" y="248" font-family="Arial, sans-serif" font-size="22" font-weight="700" fill="#0f172a">Compatibility core</text><text x="567" y="285" font-family="Arial, sans-serif" font-size="16" fill="#334155">UNKNOWN ≠ IMPOSSIBLE</text><text x="567" y="319" font-family="Arial, sans-serif" font-size="15" fill="#334155">Exact contradictions: zero support</text><text x="567" y="352" font-family="Arial, sans-serif" font-size="13" fill="#475569">Selected generic operator</text><text x="567" y="376" font-family="Arial, sans-serif" font-size="16" font-weight="700" fill="#0f172a">identity fallback</text><text x="567" y="405" font-family="Arial, sans-serif" font-size="13" fill="#475569">partial theories retained until refuted</text><path d="M 775 280 C 870 170, 905 170, 1010 300" fill="none" stroke="#16a34a" stroke-width="12" stroke-linecap="round"/><path d="M 775 340 C 870 450, 905 450, 1010 330" fill="none" stroke="#ea580c" stroke-width="12" stroke-linecap="round"/><text x="1050" y="142" font-family="Arial, sans-serif" font-size="20" font-weight="700" fill="#0f172a">Committed output</text><rect x="986" y="161" width="263" height="263" rx="8" fill="#f8fafc" stroke="#475569"/><rect x="990" y="165" width="14" height="14" fill="#111827"/><rect x="1005" y="165" width="14" height="14" fill="#111827"/><rect x="1020" y="165" width="14" height="14" fill="#111827"/><rect x="1035" y="165" width="14" height="14" fill="#111827"/><rect x="1050" y="165" width="14" height="14" fill="#111827"/><rect x="1065" y="165" width="14" height="14" fill="#111827"/><rect x="1080" y="165" width="14" height="14" fill="#111827"/><rect x="1095" y="165" width="14" height="14" fill="#111827"/><rect x="1110" y="165" width="14" height="14" fill="#111827"/><rect x="1125" y="165" width="14" height="14" fill="#111827"/><rect x="1140" y="165" width="14" height="14" fill="#111827"/><rect x="1155" y="165" width="14" height="14" fill="#111827"/><rect x="1170" y="165" width="14" height="14" fill="#111827"/><rect x="1185" y="165" width="14" height="14" fill="#111827"/><rect x="1200" y="165" width="14" height="14" fill="#22d3ee"/><rect x="1215" y="165" width="14" height="14" fill="#111827"/><rect x="1230" y="165" width="14" height="14" fill="#111827"/><rect x="990" y="180" width="14" height="14" fill="#111827"/><rect x="1005" y="180" width="14" height="14" fill="#111827"/><rect x="1020" y="180" width="14" height="14" fill="#111827"/><rect x="1035" y="180" width="14" height="14" fill="#111827"/><rect x="1050" y="180" width="14" height="14" fill="#2563eb"/><rect x="1065" y="180" width="14" height="14" fill="#2563eb"/><rect x="1080" y="180" width="14" height="14" fill="#2563eb"/><rect x="1095" y="180" width="14" height="14" fill="#2563eb"/><rect x="1110" y="180" width="14" height="14" fill="#2563eb"/><rect x="1125" y="180" width="14" height="14" fill="#2563eb"/><rect x="1140" y="180" width="14" height="14" fill="#2563eb"/><rect x="1155" y="180" width="14" height="14" fill="#2563eb"/><rect x="1170" y="180" width="14" height="14" fill="#111827"/><rect x="1185" y="180" width="14" height="14" fill="#111827"/><rect x="1200" y="180" width="14" height="14" fill="#111827"/><rect x="1215" y="180" width="14" height="14" fill="#111827"/><rect x="1230" y="180" width="14" height="14" fill="#111827"/><rect x="990" y="195" width="14" height="14" fill="#2563eb"/><rect x="1005" y="195" width="14" height="14" fill="#2563eb"/><rect x="1020" y="195" width="14" height="14" fill="#2563eb"/><rect x="1035" y="195" width="14" height="14" fill="#111827"/><rect x="1050" y="195" width="14" height="14" fill="#2563eb"/><rect x="1065" y="195" width="14" height="14" fill="#111827"/><rect x="1080" y="195" width="14" height="14" fill="#22d3ee"/><rect x="1095" y="195" width="14" height="14" fill="#111827"/><rect x="1110" y="195" width="14" height="14" fill="#22d3ee"/><rect x="1125" y="195" width="14" height="14" fill="#111827"/><rect x="1140" y="195" width="14" height="14" fill="#111827"/><rect x="1155" y="195" width="14" height="14" fill="#2563eb"/><rect x="1170" y="195" width="14" height="14" fill="#22d3ee"/><rect x="1185" y="195" width="14" height="14" fill="#111827"/><rect x="1200" y="195" width="14" height="14" fill="#111827"/><rect x="1215" y="195" width="14" height="14" fill="#111827"/><rect x="1230" y="195" width="14" height="14" fill="#111827"/><rect x="990" y="210" width="14" height="14" fill="#2563eb"/><rect x="1005" y="210" width="14" height="14" fill="#111827"/><rect x="1020" y="210" width="14" height="14" fill="#2563eb"/><rect x="1035" y="210" width="14" height="14" fill="#111827"/><rect x="1050" y="210" width="14" height="14" fill="#2563eb"/><rect x="1065" y="210" width="14" height="14" fill="#111827"/><rect x="1080" y="210" width="14" height="14" fill="#111827"/><rect x="1095" y="210" width="14" height="14" fill="#111827"/><rect x="1110" y="210" width="14" height="14" fill="#111827"/><rect x="1125" y="210" width="14" height="14" fill="#111827"/><rect x="1140" y="210" width="14" height="14" fill="#111827"/><rect x="1155" y="210" width="14" height="14" fill="#2563eb"/><rect x="1170" y="210" width="14" height="14" fill="#22d3ee"/><rect x="1185" y="210" width="14" height="14" fill="#111827"/><rect x="1200" y="210" width="14" height="14" fill="#22d3ee"/><rect x="1215" y="210" width="14" height="14" fill="#111827"/><rect x="1230" y="210" width="14" height="14" fill="#111827"/><rect x="990" y="225" width="14" height="14" fill="#2563eb"/><rect x="1005" y="225" width="14" height="14" fill="#2563eb"/><rect x="1020" y="225" width="14" height="14" fill="#2563eb"/><rect x="1035" y="225" width="14" height="14" fill="#111827"/><rect x="1050" y="225" width="14" height="14" fill="#2563eb"/><rect x="1065" y="225" width="14" height="14" fill="#111827"/><rect x="1080" y="225" width="14" height="14" fill="#111827"/><rect x="1095" y="225" width="14" height="14" fill="#111827"/><rect x="1110" y="225" width="14" height="14" fill="#111827"/><rect x="1125" y="225" width="14" height="14" fill="#111827"/><rect x="1140" y="225" width="14" height="14" fill="#111827"/><rect x="1155" y="225" width="14" height="14" fill="#2563eb"/><rect x="1170" y="225" width="14" height="14" fill="#111827"/><rect x="1185" y="225" width="14" height="14" fill="#111827"/><rect x="1200" y="225" width="14" height="14" fill="#22d3ee"/><rect x="1215" y="225" width="14" height="14" fill="#111827"/><rect x="1230" y="225" width="14" height="14" fill="#111827"/><rect x="990" y="240" width="14" height="14" fill="#111827"/><rect x="1005" y="240" width="14" height="14" fill="#111827"/><rect x="1020" y="240" width="14" height="14" fill="#111827"/><rect x="1035" y="240" width="14" height="14" fill="#111827"/><rect x="1050" y="240" width="14" height="14" fill="#2563eb"/><rect x="1065" y="240" width="14" height="14" fill="#111827"/><rect x="1080" y="240" width="14" height="14" fill="#111827"/><rect x="1095" y="240" width="14" height="14" fill="#111827"/><rect x="1110" y="240" width="14" height="14" fill="#111827"/><rect x="1125" y="240" width="14" height="14" fill="#111827"/><rect x="1140" y="240" width="14" height="14" fill="#111827"/><rect x="1155" y="240" width="14" height="14" fill="#2563eb"/><rect x="1170" y="240" width="14" height="14" fill="#111827"/><rect x="1185" y="240" width="14" height="14" fill="#111827"/><rect x="1200" y="240" width="14" height="14" fill="#111827"/><rect x="1215" y="240" width="14" height="14" fill="#111827"/><rect x="1230" y="240" width="14" height="14" fill="#111827"/><rect x="990" y="255" width="14" height="14" fill="#111827"/><rect x="1005" y="255" width="14" height="14" fill="#111827"/><rect x="1020" y="255" width="14" height="14" fill="#111827"/><rect x="1035" y="255" width="14" height="14" fill="#111827"/><rect x="1050" y="255" width="14" height="14" fill="#2563eb"/><rect x="1065" y="255" width="14" height="14" fill="#111827"/><rect x="1080" y="255" width="14" height="14" fill="#22d3ee"/><rect x="1095" y="255" width="14" height="14" fill="#111827"/><rect x="1110" y="255" width="14" height="14" fill="#111827"/><rect x="1125" y="255" width="14" height="14" fill="#111827"/><rect x="1140" y="255" width="14" height="14" fill="#111827"/><rect x="1155" y="255" width="14" height="14" fill="#2563eb"/><rect x="1170" y="255" width="14" height="14" fill="#111827"/><rect x="1185" y="255" width="14" height="14" fill="#111827"/><rect x="1200" y="255" width="14" height="14" fill="#111827"/><rect x="1215" y="255" width="14" height="14" fill="#111827"/><rect x="1230" y="255" width="14" height="14" fill="#22d3ee"/><rect x="990" y="270" width="14" height="14" fill="#111827"/><rect x="1005" y="270" width="14" height="14" fill="#111827"/><rect x="1020" y="270" width="14" height="14" fill="#111827"/><rect x="1035" y="270" width="14" height="14" fill="#111827"/><rect x="1050" y="270" width="14" height="14" fill="#2563eb"/><rect x="1065" y="270" width="14" height="14" fill="#111827"/><rect x="1080" y="270" width="14" height="14" fill="#111827"/><rect x="1095" y="270" width="14" height="14" fill="#111827"/><rect x="1110" y="270" width="14" height="14" fill="#111827"/><rect x="1125" y="270" width="14" height="14" fill="#22d3ee"/><rect x="1140" y="270" width="14" height="14" fill="#111827"/><rect x="1155" y="270" width="14" height="14" fill="#2563eb"/><rect x="1170" y="270" width="14" height="14" fill="#111827"/><rect x="1185" y="270" width="14" height="14" fill="#111827"/><rect x="1200" y="270" width="14" height="14" fill="#111827"/><rect x="1215" y="270" width="14" height="14" fill="#111827"/><rect x="1230" y="270" width="14" height="14" fill="#111827"/><rect x="990" y="285" width="14" height="14" fill="#111827"/><rect x="1005" y="285" width="14" height="14" fill="#111827"/><rect x="1020" y="285" width="14" height="14" fill="#111827"/><rect x="1035" y="285" width="14" height="14" fill="#111827"/><rect x="1050" y="285" width="14" height="14" fill="#2563eb"/><rect x="1065" y="285" width="14" height="14" fill="#2563eb"/><rect x="1080" y="285" width="14" height="14" fill="#2563eb"/><rect x="1095" y="285" width="14" height="14" fill="#2563eb"/><rect x="1110" y="285" width="14" height="14" fill="#2563eb"/><rect x="1125" y="285" width="14" height="14" fill="#2563eb"/><rect x="1140" y="285" width="14" height="14" fill="#2563eb"/><rect x="1155" y="285" width="14" height="14" fill="#2563eb"/><rect x="1170" y="285" width="14" height="14" fill="#111827"/><rect x="1185" y="285" width="14" height="14" fill="#22d3ee"/><rect x="1200" y="285" width="14" height="14" fill="#111827"/><rect x="1215" y="285" width="14" height="14" fill="#111827"/><rect x="1230" y="285" width="14" height="14" fill="#111827"/><rect x="990" y="300" width="14" height="14" fill="#111827"/><rect x="1005" y="300" width="14" height="14" fill="#22d3ee"/><rect x="1020" y="300" width="14" height="14" fill="#111827"/><rect x="1035" y="300" width="14" height="14" fill="#111827"/><rect x="1050" y="300" width="14" height="14" fill="#111827"/><rect x="1065" y="300" width="14" height="14" fill="#111827"/><rect x="1080" y="300" width="14" height="14" fill="#111827"/><rect x="1095" y="300" width="14" height="14" fill="#111827"/><rect x="1110" y="300" width="14" height="14" fill="#111827"/><rect x="1125" y="300" width="14" height="14" fill="#111827"/><rect x="1140" y="300" width="14" height="14" fill="#111827"/><rect x="1155" y="300" width="14" height="14" fill="#111827"/><rect x="1170" y="300" width="14" height="14" fill="#111827"/><rect x="1185" y="300" width="14" height="14" fill="#111827"/><rect x="1200" y="300" width="14" height="14" fill="#111827"/><rect x="1215" y="300" width="14" height="14" fill="#111827"/><rect x="1230" y="300" width="14" height="14" fill="#111827"/><rect x="990" y="315" width="14" height="14" fill="#111827"/><rect x="1005" y="315" width="14" height="14" fill="#111827"/><rect x="1020" y="315" width="14" height="14" fill="#111827"/><rect x="1035" y="315" width="14" height="14" fill="#111827"/><rect x="1050" y="315" width="14" height="14" fill="#111827"/><rect x="1065" y="315" width="14" height="14" fill="#22d3ee"/><rect x="1080" y="315" width="14" height="14" fill="#111827"/><rect x="1095" y="315" width="14" height="14" fill="#111827"/><rect x="1110" y="315" width="14" height="14" fill="#111827"/><rect x="1125" y="315" width="14" height="14" fill="#111827"/><rect x="1140" y="315" width="14" height="14" fill="#111827"/><rect x="1155" y="315" width="14" height="14" fill="#111827"/><rect x="1170" y="315" width="14" height="14" fill="#111827"/><rect x="1185" y="315" width="14" height="14" fill="#111827"/><rect x="1200" y="315" width="14" height="14" fill="#111827"/><rect x="1215" y="315" width="14" height="14" fill="#111827"/><rect x="1230" y="315" width="14" height="14" fill="#111827"/><rect x="990" y="330" width="14" height="14" fill="#111827"/><rect x="1005" y="330" width="14" height="14" fill="#22d3ee"/><rect x="1020" y="330" width="14" height="14" fill="#111827"/><rect x="1035" y="330" width="14" height="14" fill="#111827"/><rect x="1050" y="330" width="14" height="14" fill="#111827"/><rect x="1065" y="330" width="14" height="14" fill="#111827"/><rect x="1080" y="330" width="14" height="14" fill="#111827"/><rect x="1095" y="330" width="14" height="14" fill="#111827"/><rect x="1110" y="330" width="14" height="14" fill="#111827"/><rect x="1125" y="330" width="14" height="14" fill="#111827"/><rect x="1140" y="330" width="14" height="14" fill="#2563eb"/><rect x="1155" y="330" width="14" height="14" fill="#2563eb"/><rect x="1170" y="330" width="14" height="14" fill="#2563eb"/><rect x="1185" y="330" width="14" height="14" fill="#2563eb"/><rect x="1200" y="330" width="14" height="14" fill="#2563eb"/><rect x="1215" y="330" width="14" height="14" fill="#2563eb"/><rect x="1230" y="330" width="14" height="14" fill="#111827"/><rect x="990" y="345" width="14" height="14" fill="#111827"/><rect x="1005" y="345" width="14" height="14" fill="#111827"/><rect x="1020" y="345" width="14" height="14" fill="#111827"/><rect x="1035" y="345" width="14" height="14" fill="#111827"/><rect x="1050" y="345" width="14" height="14" fill="#111827"/><rect x="1065" y="345" width="14" height="14" fill="#111827"/><rect x="1080" y="345" width="14" height="14" fill="#111827"/><rect x="1095" y="345" width="14" height="14" fill="#111827"/><rect x="1110" y="345" width="14" height="14" fill="#111827"/><rect x="1125" y="345" width="14" height="14" fill="#111827"/><rect x="1140" y="345" width="14" height="14" fill="#2563eb"/><rect x="1155" y="345" width="14" height="14" fill="#111827"/><rect x="1170" y="345" width="14" height="14" fill="#111827"/><rect x="1185" y="345" width="14" height="14" fill="#111827"/><rect x="1200" y="345" width="14" height="14" fill="#111827"/><rect x="1215" y="345" width="14" height="14" fill="#2563eb"/><rect x="1230" y="345" width="14" height="14" fill="#111827"/><rect x="990" y="360" width="14" height="14" fill="#111827"/><rect x="1005" y="360" width="14" height="14" fill="#111827"/><rect x="1020" y="360" width="14" height="14" fill="#111827"/><rect x="1035" y="360" width="14" height="14" fill="#111827"/><rect x="1050" y="360" width="14" height="14" fill="#111827"/><rect x="1065" y="360" width="14" height="14" fill="#22d3ee"/><rect x="1080" y="360" width="14" height="14" fill="#111827"/><rect x="1095" y="360" width="14" height="14" fill="#111827"/><rect x="1110" y="360" width="14" height="14" fill="#111827"/><rect x="1125" y="360" width="14" height="14" fill="#111827"/><rect x="1140" y="360" width="14" height="14" fill="#2563eb"/><rect x="1155" y="360" width="14" height="14" fill="#22d3ee"/><rect x="1170" y="360" width="14" height="14" fill="#111827"/><rect x="1185" y="360" width="14" height="14" fill="#22d3ee"/><rect x="1200" y="360" width="14" height="14" fill="#111827"/><rect x="1215" y="360" width="14" height="14" fill="#2563eb"/><rect x="1230" y="360" width="14" height="14" fill="#111827"/><rect x="990" y="375" width="14" height="14" fill="#111827"/><rect x="1005" y="375" width="14" height="14" fill="#111827"/><rect x="1020" y="375" width="14" height="14" fill="#111827"/><rect x="1035" y="375" width="14" height="14" fill="#22d3ee"/><rect x="1050" y="375" width="14" height="14" fill="#22d3ee"/><rect x="1065" y="375" width="14" height="14" fill="#111827"/><rect x="1080" y="375" width="14" height="14" fill="#111827"/><rect x="1095" y="375" width="14" height="14" fill="#22d3ee"/><rect x="1110" y="375" width="14" height="14" fill="#111827"/><rect x="1125" y="375" width="14" height="14" fill="#111827"/><rect x="1140" y="375" width="14" height="14" fill="#2563eb"/><rect x="1155" y="375" width="14" height="14" fill="#111827"/><rect x="1170" y="375" width="14" height="14" fill="#111827"/><rect x="1185" y="375" width="14" height="14" fill="#111827"/><rect x="1200" y="375" width="14" height="14" fill="#111827"/><rect x="1215" y="375" width="14" height="14" fill="#2563eb"/><rect x="1230" y="375" width="14" height="14" fill="#111827"/><rect x="990" y="390" width="14" height="14" fill="#111827"/><rect x="1005" y="390" width="14" height="14" fill="#111827"/><rect x="1020" y="390" width="14" height="14" fill="#111827"/><rect x="1035" y="390" width="14" height="14" fill="#111827"/><rect x="1050" y="390" width="14" height="14" fill="#111827"/><rect x="1065" y="390" width="14" height="14" fill="#111827"/><rect x="1080" y="390" width="14" height="14" fill="#111827"/><rect x="1095" y="390" width="14" height="14" fill="#111827"/><rect x="1110" y="390" width="14" height="14" fill="#111827"/><rect x="1125" y="390" width="14" height="14" fill="#111827"/><rect x="1140" y="390" width="14" height="14" fill="#2563eb"/><rect x="1155" y="390" width="14" height="14" fill="#2563eb"/><rect x="1170" y="390" width="14" height="14" fill="#2563eb"/><rect x="1185" y="390" width="14" height="14" fill="#2563eb"/><rect x="1200" y="390" width="14" height="14" fill="#2563eb"/><rect x="1215" y="390" width="14" height="14" fill="#2563eb"/><rect x="1230" y="390" width="14" height="14" fill="#111827"/><rect x="990" y="405" width="14" height="14" fill="#111827"/><rect x="1005" y="405" width="14" height="14" fill="#111827"/><rect x="1020" y="405" width="14" height="14" fill="#111827"/><rect x="1035" y="405" width="14" height="14" fill="#111827"/><rect x="1050" y="405" width="14" height="14" fill="#111827"/><rect x="1065" y="405" width="14" height="14" fill="#111827"/><rect x="1080" y="405" width="14" height="14" fill="#111827"/><rect x="1095" y="405" width="14" height="14" fill="#111827"/><rect x="1110" y="405" width="14" height="14" fill="#22d3ee"/><rect x="1125" y="405" width="14" height="14" fill="#22d3ee"/><rect x="1140" y="405" width="14" height="14" fill="#111827"/><rect x="1155" y="405" width="14" height="14" fill="#111827"/><rect x="1170" y="405" width="14" height="14" fill="#111827"/><rect x="1185" y="405" width="14" height="14" fill="#111827"/><rect x="1200" y="405" width="14" height="14" fill="#111827"/><rect x="1215" y="405" width="14" height="14" fill="#111827"/><rect x="1230" y="405" width="14" height="14" fill="#22d3ee"/><rect x="48" y="520" width="1184" height="55" rx="12" fill="#e2e8f0"/><text x="70" y="554" font-family="Arial, sans-serif" font-size="15" fill="#0f172a">Observable controller path: ATTEND → PROPOSE → APPLY/COMPARE → COUNTEREXAMPLE → REVISE → COMMIT</text></svg>