<svg xmlns="http://www.w3.org/2000/svg" width="1280" height="620" viewBox="0 0 1280 620"><rect width="1280" height="620" fill="#f8fafc"/><text x="48" y="55" font-family="Arial, sans-serif" font-size="30" font-weight="700" fill="#0f172a">ARC123 Corpus-Callosum Trace</text><text x="48" y="84" font-family="Arial, sans-serif" font-size="16" fill="#334155">Explicit evidence → compatibility support → complete candidate output</text><text x="120" y="142" font-family="Arial, sans-serif" font-size="20" font-weight="700" fill="#0f172a">Test input</text><rect x="66" y="161" width="232" height="232" rx="8" fill="#f8fafc" stroke="#475569"/><rect x="70" y="165" width="27" height="27" fill="#22d3ee"/><rect x="98" y="165" width="27" height="27" fill="#22d3ee"/><rect x="126" y="165" width="27" height="27" fill="#22d3ee"/><rect x="154" y="165" width="27" height="27" fill="#22d3ee"/><rect x="182" y="165" width="27" height="27" fill="#22d3ee"/><rect x="210" y="165" width="27" height="27" fill="#22d3ee"/><rect x="238" y="165" width="27" height="27" fill="#d946ef"/><rect x="266" y="165" width="27" height="27" fill="#d946ef"/><rect x="70" y="193" width="27" height="27" fill="#22d3ee"/><rect x="98" y="193" width="27" height="27" fill="#22d3ee"/><rect x="126" y="193" width="27" height="27" fill="#22d3ee"/><rect x="154" y="193" width="27" height="27" fill="#22d3ee"/><rect x="182" y="193" width="27" height="27" fill="#22d3ee"/><rect x="210" y="193" width="27" height="27" fill="#22d3ee"/><rect x="238" y="193" width="27" height="27" fill="#d946ef"/><rect x="266" y="193" width="27" height="27" fill="#d946ef"/><rect x="70" y="221" width="27" height="27" fill="#facc15"/><rect x="98" y="221" width="27" height="27" fill="#22d3ee"/><rect x="126" y="221" width="27" height="27" fill="#22d3ee"/><rect x="154" y="221" width="27" height="27" fill="#facc15"/><rect x="182" y="221" width="27" height="27" fill="#22d3ee"/><rect x="210" y="221" width="27" height="27" fill="#22d3ee"/><rect x="238" y="221" width="27" height="27" fill="#d946ef"/><rect x="266" y="221" width="27" height="27" fill="#d946ef"/><rect x="70" y="249" width="27" height="27" fill="#facc15"/><rect x="98" y="249" width="27" height="27" fill="#facc15"/><rect x="126" y="249" width="27" height="27" fill="#facc15"/><rect x="154" y="249" width="27" height="27" fill="#facc15"/><rect x="182" y="249" width="27" height="27" fill="#22d3ee"/><rect x="210" y="249" width="27" height="27" fill="#22d3ee"/><rect x="238" y="249" width="27" height="27" fill="#22d3ee"/><rect x="266" y="249" width="27" height="27" fill="#22d3ee"/><rect x="70" y="277" width="27" height="27" fill="#facc15"/><rect x="98" y="277" width="27" height="27" fill="#22d3ee"/><rect x="126" y="277" width="27" height="27" fill="#22d3ee"/><rect x="154" y="277" width="27" height="27" fill="#facc15"/><rect x="182" y="277" width="27" height="27" fill="#22d3ee"/><rect x="210" y="277" width="27" height="27" fill="#22d3ee"/><rect x="238" y="277" width="27" height="27" fill="#22d3ee"/><rect x="266" y="277" width="27" height="27" fill="#22d3ee"/><rect x="70" y="305" width="27" height="27" fill="#22d3ee"/><rect x="98" y="305" width="27" height="27" fill="#22d3ee"/><rect x="126" y="305" width="27" height="27" fill="#22d3ee"/><rect x="154" y="305" width="27" height="27" fill="#22d3ee"/><rect x="182" y="305" width="27" height="27" fill="#22d3ee"/><rect x="210" y="305" width="27" height="27" fill="#22d3ee"/><rect x="238" y="305" width="27" height="27" fill="#22d3ee"/><rect x="266" y="305" width="27" height="27" fill="#22d3ee"/><rect x="70" y="333" width="27" height="27" fill="#dc2626"/><rect x="98" y="333" width="27" height="27" fill="#dc2626"/><rect x="126" y="333" width="27" height="27" fill="#dc2626"/><rect x="154" y="333" width="27" height="27" fill="#22d3ee"/><rect x="182" y="333" width="27" height="27" fill="#6b21a8"/><rect x="210" y="333" width="27" height="27" fill="#6b21a8"/><rect x="238" y="333" width="27" height="27" fill="#6b21a8"/><rect x="266" y="333" width="27" height="27" fill="#6b21a8"/><rect x="70" y="361" width="27" height="27" fill="#dc2626"/><rect x="98" y="361" width="27" height="27" fill="#dc2626"/><rect x="126" y="361" width="27" height="27" fill="#dc2626"/><rect x="154" y="361" width="27" height="27" fill="#22d3ee"/><rect x="182" y="361" width="27" height="27" fill="#6b21a8"/><rect x="210" y="361" width="27" height="27" fill="#6b21a8"/><rect x="238" y="361" width="27" height="27" fill="#6b21a8"/><rect x="266" y="361" width="27" height="27" fill="#6b21a8"/><path d="M 360 300 C 470 170, 510 170, 580 280" fill="none" stroke="#2563eb" stroke-width="12" stroke-linecap="round"/><path d="M 360 330 C 470 450, 510 450, 580 340" fill="none" stroke="#7c3aed" stroke-width="12" stroke-linecap="round"/><rect x="540" y="205" width="235" height="220" rx="24" fill="#ffffff" stroke="#334155" stroke-width="3"/><text x="567" y="248" font-family="Arial, sans-serif" font-size="22" font-weight="700" fill="#0f172a">Compatibility core</text><text x="567" y="285" font-family="Arial, sans-serif" font-size="16" fill="#334155">UNKNOWN ≠ IMPOSSIBLE</text><text x="567" y="319" font-family="Arial, sans-serif" font-size="15" fill="#334155">Exact contradictions: zero support</text><text x="567" y="352" font-family="Arial, sans-serif" font-size="13" fill="#475569">Selected generic operator</text><text x="567" y="376" font-family="Arial, sans-serif" font-size="16" font-weight="700" fill="#0f172a">identity fallback</text><text x="567" y="405" font-family="Arial, sans-serif" font-size="13" fill="#475569">partial theories retained until refuted</text><path d="M 775 280 C 870 170, 905 170, 1010 300" fill="none" stroke="#16a34a" stroke-width="12" stroke-linecap="round"/><path d="M 775 340 C 870 450, 905 450, 1010 330" fill="none" stroke="#ea580c" stroke-width="12" stroke-linecap="round"/><text x="1050" y="142" font-family="Arial, sans-serif" font-size="20" font-weight="700" fill="#0f172a">Committed output</text><rect x="986" y="161" width="232" height="232" rx="8" fill="#f8fafc" stroke="#475569"/><rect x="990" y="165" width="27" height="27" fill="#22d3ee"/><rect x="1018" y="165" width="27" height="27" fill="#22d3ee"/><rect x="1046" y="165" width="27" height="27" fill="#22d3ee"/><rect x="1074" y="165" width="27" height="27" fill="#22d3ee"/><rect x="1102" y="165" width="27" height="27" fill="#22d3ee"/><rect x="1130" y="165" width="27" height="27" fill="#22d3ee"/><rect x="1158" y="165" width="27" height="27" fill="#d946ef"/><rect x="1186" y="165" width="27" height="27" fill="#d946ef"/><rect x="990" y="193" width="27" height="27" fill="#22d3ee"/><rect x="1018" y="193" width="27" height="27" fill="#22d3ee"/><rect x="1046" y="193" width="27" height="27" fill="#22d3ee"/><rect x="1074" y="193" width="27" height="27" fill="#22d3ee"/><rect x="1102" y="193" width="27" height="27" fill="#22d3ee"/><rect x="1130" y="193" width="27" height="27" fill="#22d3ee"/><rect x="1158" y="193" width="27" height="27" fill="#d946ef"/><rect x="1186" y="193" width="27" height="27" fill="#d946ef"/><rect x="990" y="221" width="27" height="27" fill="#facc15"/><rect x="1018" y="221" width="27" height="27" fill="#22d3ee"/><rect x="1046" y="221" width="27" height="27" fill="#22d3ee"/><rect x="1074" y="221" width="27" height="27" fill="#facc15"/><rect x="1102" y="221" width="27" height="27" fill="#22d3ee"/><rect x="1130" y="221" width="27" height="27" fill="#22d3ee"/><rect x="1158" y="221" width="27" height="27" fill="#d946ef"/><rect x="1186" y="221" width="27" height="27" fill="#d946ef"/><rect x="990" y="249" width="27" height="27" fill="#facc15"/><rect x="1018" y="249" width="27" height="27" fill="#facc15"/><rect x="1046" y="249" width="27" height="27" fill="#facc15"/><rect x="1074" y="249" width="27" height="27" fill="#facc15"/><rect x="1102" y="249" width="27" height="27" fill="#22d3ee"/><rect x="1130" y="249" width="27" height="27" fill="#22d3ee"/><rect x="1158" y="249" width="27" height="27" fill="#22d3ee"/><rect x="1186" y="249" width="27" height="27" fill="#22d3ee"/><rect x="990" y="277" width="27" height="27" fill="#facc15"/><rect x="1018" y="277" width="27" height="27" fill="#22d3ee"/><rect x="1046" y="277" width="27" height="27" fill="#22d3ee"/><rect x="1074" y="277" width="27" height="27" fill="#facc15"/><rect x="1102" y="277" width="27" height="27" fill="#22d3ee"/><rect x="1130" y="277" width="27" height="27" fill="#22d3ee"/><rect x="1158" y="277" width="27" height="27" fill="#22d3ee"/><rect x="1186" y="277" width="27" height="27" fill="#22d3ee"/><rect x="990" y="305" width="27" height="27" fill="#22d3ee"/><rect x="1018" y="305" width="27" height="27" fill="#22d3ee"/><rect x="1046" y="305" width="27" height="27" fill="#22d3ee"/><rect x="1074" y="305" width="27" height="27" fill="#22d3ee"/><rect x="1102" y="305" width="27" height="27" fill="#22d3ee"/><rect x="1130" y="305" width="27" height="27" fill="#22d3ee"/><rect x="1158" y="305" width="27" height="27" fill="#22d3ee"/><rect x="1186" y="305" width="27" height="27" fill="#22d3ee"/><rect x="990" y="333" width="27" height="27" fill="#dc2626"/><rect x="1018" y="333" width="27" height="27" fill="#dc2626"/><rect x="1046" y="333" width="27" height="27" fill="#dc2626"/><rect x="1074" y="333" width="27" height="27" fill="#22d3ee"/><rect x="1102" y="333" width="27" height="27" fill="#6b21a8"/><rect x="1130" y="333" width="27" height="27" fill="#6b21a8"/><rect x="1158" y="333" width="27" height="27" fill="#6b21a8"/><rect x="1186" y="333" width="27" height="27" fill="#6b21a8"/><rect x="990" y="361" width="27" height="27" fill="#dc2626"/><rect x="1018" y="361" width="27" height="27" fill="#dc2626"/><rect x="1046" y="361" width="27" height="27" fill="#dc2626"/><rect x="1074" y="361" width="27" height="27" fill="#22d3ee"/><rect x="1102" y="361" width="27" height="27" fill="#6b21a8"/><rect x="1130" y="361" width="27" height="27" fill="#6b21a8"/><rect x="1158" y="361" width="27" height="27" fill="#6b21a8"/><rect x="1186" y="361" width="27" height="27" fill="#6b21a8"/><rect x="48" y="520" width="1184" height="55" rx="12" fill="#e2e8f0"/><text x="70" y="554" font-family="Arial, sans-serif" font-size="15" fill="#0f172a">Observable controller path: ATTEND → PROPOSE → APPLY/COMPARE → COUNTEREXAMPLE → REVISE → COMMIT</text></svg>