<svg xmlns="http://www.w3.org/2000/svg" width="1280" height="620" viewBox="0 0 1280 620"><rect width="1280" height="620" fill="#f8fafc"/><text x="48" y="55" font-family="Arial, sans-serif" font-size="30" font-weight="700" fill="#0f172a">ARC123 Corpus-Callosum Trace</text><text x="48" y="84" font-family="Arial, sans-serif" font-size="16" fill="#334155">Explicit evidence → compatibility support → complete candidate output</text><text x="120" y="142" font-family="Arial, sans-serif" font-size="20" font-weight="700" fill="#0f172a">Test input</text><rect x="66" y="161" width="260" height="62" rx="8" fill="#f8fafc" stroke="#475569"/><rect x="70" y="165" width="17" height="17" fill="#dc2626"/><rect x="88" y="165" width="17" height="17" fill="#7c2d12"/><rect x="106" y="165" width="17" height="17" fill="#dc2626"/><rect x="124" y="165" width="17" height="17" fill="#7c2d12"/><rect x="142" y="165" width="17" height="17" fill="#dc2626"/><rect x="160" y="165" width="17" height="17" fill="#7c2d12"/><rect x="178" y="165" width="17" height="17" fill="#dc2626"/><rect x="196" y="165" width="17" height="17" fill="#dc2626"/><rect x="214" y="165" width="17" height="17" fill="#dc2626"/><rect x="232" y="165" width="17" height="17" fill="#7c2d12"/><rect x="250" y="165" width="17" height="17" fill="#dc2626"/><rect x="268" y="165" width="17" height="17" fill="#dc2626"/><rect x="286" y="165" width="17" height="17" fill="#7c2d12"/><rect x="304" y="165" width="17" height="17" fill="#dc2626"/><rect x="70" y="183" width="17" height="17" fill="#7c2d12"/><rect x="88" y="183" width="17" height="17" fill="#7c2d12"/><rect x="106" y="183" width="17" height="17" fill="#7c2d12"/><rect x="124" y="183" width="17" height="17" fill="#7c2d12"/><rect x="142" y="183" width="17" height="17" fill="#7c2d12"/><rect x="160" y="183" width="17" height="17" fill="#7c2d12"/><rect x="178" y="183" width="17" height="17" fill="#dc2626"/><rect x="196" y="183" width="17" height="17" fill="#dc2626"/><rect x="214" y="183" width="17" height="17" fill="#dc2626"/><rect x="232" y="183" width="17" height="17" fill="#7c2d12"/><rect x="250" y="183" width="17" height="17" fill="#7c2d12"/><rect x="268" y="183" width="17" height="17" fill="#7c2d12"/><rect x="286" y="183" width="17" height="17" fill="#7c2d12"/><rect x="304" y="183" width="17" height="17" fill="#dc2626"/><rect x="70" y="201" width="17" height="17" fill="#7c2d12"/><rect x="88" y="201" width="17" height="17" fill="#7c2d12"/><rect x="106" y="201" width="17" height="17" fill="#7c2d12"/><rect x="124" y="201" width="17" height="17" fill="#7c2d12"/><rect x="142" y="201" width="17" height="17" fill="#7c2d12"/><rect x="160" y="201" width="17" height="17" fill="#7c2d12"/><rect x="178" y="201" width="17" height="17" fill="#dc2626"/><rect x="196" y="201" width="17" height="17" fill="#dc2626"/><rect x="214" y="201" width="17" height="17" fill="#dc2626"/><rect x="232" y="201" width="17" height="17" fill="#7c2d12"/><rect x="250" y="201" width="17" height="17" fill="#7c2d12"/><rect x="268" y="201" width="17" height="17" fill="#7c2d12"/><rect x="286" y="201" width="17" height="17" fill="#7c2d12"/><rect x="304" y="201" width="17" height="17" fill="#7c2d12"/><path d="M 360 300 C 470 170, 510 170, 580 280" fill="none" stroke="#2563eb" stroke-width="12" stroke-linecap="round"/><path d="M 360 330 C 470 450, 510 450, 580 340" fill="none" stroke="#7c3aed" stroke-width="12" stroke-linecap="round"/><rect x="540" y="205" width="235" height="220" rx="24" fill="#ffffff" stroke="#334155" stroke-width="3"/><text x="567" y="248" font-family="Arial, sans-serif" font-size="22" font-weight="700" fill="#0f172a">Compatibility core</text><text x="567" y="285" font-family="Arial, sans-serif" font-size="16" fill="#334155">UNKNOWN ≠ IMPOSSIBLE</text><text x="567" y="319" font-family="Arial, sans-serif" font-size="15" fill="#334155">Exact contradictions: zero support</text><text x="567" y="352" font-family="Arial, sans-serif" font-size="13" fill="#475569">Selected generic operator</text><text x="567" y="376" font-family="Arial, sans-serif" font-size="16" font-weight="700" fill="#0f172a">identity fallback</text><text x="567" y="405" font-family="Arial, sans-serif" font-size="13" fill="#475569">partial theories retained until refuted</text><path d="M 775 280 C 870 170, 905 170, 1010 300" fill="none" stroke="#16a34a" stroke-width="12" stroke-linecap="round"/><path d="M 775 340 C 870 450, 905 450, 1010 330" fill="none" stroke="#ea580c" stroke-width="12" stroke-linecap="round"/><text x="1050" y="142" font-family="Arial, sans-serif" font-size="20" font-weight="700" fill="#0f172a">Committed output</text><rect x="986" y="161" width="260" height="62" rx="8" fill="#f8fafc" stroke="#475569"/><rect x="990" y="165" width="17" height="17" fill="#dc2626"/><rect x="1008" y="165" width="17" height="17" fill="#7c2d12"/><rect x="1026" y="165" width="17" height="17" fill="#dc2626"/><rect x="1044" y="165" width="17" height="17" fill="#7c2d12"/><rect x="1062" y="165" width="17" height="17" fill="#dc2626"/><rect x="1080" y="165" width="17" height="17" fill="#7c2d12"/><rect x="1098" y="165" width="17" height="17" fill="#dc2626"/><rect x="1116" y="165" width="17" height="17" fill="#dc2626"/><rect x="1134" y="165" width="17" height="17" fill="#dc2626"/><rect x="1152" y="165" width="17" height="17" fill="#7c2d12"/><rect x="1170" y="165" width="17" height="17" fill="#dc2626"/><rect x="1188" y="165" width="17" height="17" fill="#dc2626"/><rect x="1206" y="165" width="17" height="17" fill="#7c2d12"/><rect x="1224" y="165" width="17" height="17" fill="#dc2626"/><rect x="990" y="183" width="17" height="17" fill="#7c2d12"/><rect x="1008" y="183" width="17" height="17" fill="#7c2d12"/><rect x="1026" y="183" width="17" height="17" fill="#7c2d12"/><rect x="1044" y="183" width="17" height="17" fill="#7c2d12"/><rect x="1062" y="183" width="17" height="17" fill="#7c2d12"/><rect x="1080" y="183" width="17" height="17" fill="#7c2d12"/><rect x="1098" y="183" width="17" height="17" fill="#dc2626"/><rect x="1116" y="183" width="17" height="17" fill="#dc2626"/><rect x="1134" y="183" width="17" height="17" fill="#dc2626"/><rect x="1152" y="183" width="17" height="17" fill="#7c2d12"/><rect x="1170" y="183" width="17" height="17" fill="#7c2d12"/><rect x="1188" y="183" width="17" height="17" fill="#7c2d12"/><rect x="1206" y="183" width="17" height="17" fill="#7c2d12"/><rect x="1224" y="183" width="17" height="17" fill="#dc2626"/><rect x="990" y="201" width="17" height="17" fill="#7c2d12"/><rect x="1008" y="201" width="17" height="17" fill="#7c2d12"/><rect x="1026" y="201" width="17" height="17" fill="#7c2d12"/><rect x="1044" y="201" width="17" height="17" fill="#7c2d12"/><rect x="1062" y="201" width="17" height="17" fill="#7c2d12"/><rect x="1080" y="201" width="17" height="17" fill="#7c2d12"/><rect x="1098" y="201" width="17" height="17" fill="#dc2626"/><rect x="1116" y="201" width="17" height="17" fill="#dc2626"/><rect x="1134" y="201" width="17" height="17" fill="#dc2626"/><rect x="1152" y="201" width="17" height="17" fill="#7c2d12"/><rect x="1170" y="201" width="17" height="17" fill="#7c2d12"/><rect x="1188" y="201" width="17" height="17" fill="#7c2d12"/><rect x="1206" y="201" width="17" height="17" fill="#7c2d12"/><rect x="1224" y="201" width="17" height="17" fill="#7c2d12"/><rect x="48" y="520" width="1184" height="55" rx="12" fill="#e2e8f0"/><text x="70" y="554" font-family="Arial, sans-serif" font-size="15" fill="#0f172a">Observable controller path: ATTEND → PROPOSE → APPLY/COMPARE → COUNTEREXAMPLE → REVISE → COMMIT</text></svg>